<svg width="16" height="16" viewBox="0 0 16 16" fill="none" xmlns="http://www.w3.org/2000/svg">
<path d="M5.00907 0C5.14293 0 5.25144 0.108467 5.25144 0.242268V8.60052C5.25144 9.59399 6.04911 10.4012 7.03919 10.4173L7.06925 10.4175C8.06316 10.4175 8.87076 9.62021 8.88682 8.63056L8.88706 8.60052L8.88707 1.77017L8.88706 0.242268C8.88706 0.108467 8.99557 0 9.12943 0H13.8961C14.03 0 14.1385 0.108467 14.1385 0.242268V2.84042C12.7188 2.84042 11.5679 3.99289 11.5679 5.41454C11.5679 6.83619 12.7188 7.98867 14.1385 7.98867V8.84278L14.1344 8.84282C14.0066 12.6332 10.8924 15.6667 7.06925 15.6667C3.24614 15.6667 0.131858 12.6332 0.00407835 8.84282L0 8.84278V0.242268C0 0.108467 0.108515 0 0.242374 0H5.00907Z" fill="url(#paint0_linear_1972_8285)"/>
<path d="M1.81781 3.63477C2.81172 3.63477 3.61932 4.43208 3.63537 5.42173L3.63562 5.45178V8.84353C3.63562 11.7425 5.98677 14.0927 8.88706 14.0927C11.2731 14.0927 13.2875 12.502 13.9268 10.3237C13.1577 13.3937 10.3791 15.6674 7.06925 15.6674C3.24614 15.6674 0.131858 12.6339 0.00407835 8.84357L0 8.84353V5.45178C0 4.44827 0.81386 3.63477 1.81781 3.63477Z" fill="url(#paint1_linear_1972_8285)"/>
<path d="M14.1606 7.23445C15.1765 7.23445 16 6.40983 16 5.39261C16 4.3754 15.1765 3.55078 14.1606 3.55078C13.1448 3.55078 12.3213 4.3754 12.3213 5.39261C12.3213 6.40983 13.1448 7.23445 14.1606 7.23445Z" fill="#08BFFD"/>
<defs>
<linearGradient id="paint0_linear_1972_8285" x1="14.1385" y1="7.83333" x2="0" y2="7.83333" gradientUnits="userSpaceOnUse">
<stop stop-color="#CE3892"/>
<stop offset="0.512639" stop-color="#4137CC"/>
<stop offset="1" stop-color="#006EF1"/>
</linearGradient>
<linearGradient id="paint1_linear_1972_8285" x1="-6.8329e-09" y1="5.17219" x2="9.78805" y2="14.2097" gradientUnits="userSpaceOnUse">
<stop stop-color="#00DBFF"/>
<stop offset="1" stop-color="#3A1EF3"/>
</linearGradient>
</defs>
</svg>
