<svg width="34" height="34" viewBox="0 0 34 34" fill="none" xmlns="http://www.w3.org/2000/svg">
<g clip-path="url(#clip0_3119_183107)">
<path d="M17.0014 10.5459C19.1035 10.5459 19.3525 10.554 20.1827 10.5918C20.9502 10.6269 21.3671 10.7551 21.6445 10.8629C21.9864 10.9891 22.2957 11.1903 22.5497 11.4518C22.8112 11.7058 23.0124 12.0151 23.1386 12.357C23.2464 12.6344 23.3747 13.0513 23.4097 13.8188C23.4475 14.649 23.4556 14.8979 23.4556 17.0001C23.4556 19.1022 23.4475 19.3511 23.4097 20.1813C23.3746 20.9489 23.2464 21.3657 23.1386 21.6431C23.0076 21.9827 22.807 22.291 22.5497 22.5483C22.2924 22.8056 21.984 23.0062 21.6445 23.1372C21.3671 23.245 20.9502 23.3733 20.1827 23.4083C19.3527 23.4462 19.1037 23.4542 17.0014 23.4542C14.8992 23.4542 14.6503 23.4462 13.8202 23.4083C13.0526 23.3733 12.6358 23.245 12.3584 23.1372C12.0164 23.011 11.7071 22.8098 11.4532 22.5483C11.1917 22.2944 10.9905 21.9851 10.8643 21.6431C10.7565 21.3657 10.6282 20.9489 10.5932 20.1813C10.5553 19.3512 10.5473 19.1022 10.5473 17.0001C10.5473 14.8979 10.5553 14.649 10.5932 13.8188C10.6283 13.0513 10.7565 12.6344 10.8643 12.357C10.9905 12.015 11.1918 11.7057 11.4532 11.4518C11.7072 11.1903 12.0165 10.9891 12.3584 10.8629C12.6358 10.7551 13.0527 10.6268 13.8203 10.5918C14.6504 10.5539 14.8994 10.5459 17.0015 10.5459M17.0015 9.12744C14.8634 9.12744 14.5953 9.1365 13.7557 9.17482C12.9177 9.21307 12.3455 9.34613 11.8447 9.54075C11.3194 9.73843 10.8436 10.0483 10.4503 10.4488C10.0498 10.842 9.73981 11.3178 9.54206 11.8432C9.34759 12.3439 9.21453 12.9162 9.17644 13.7542C9.13797 14.5937 9.12891 14.8619 9.12891 17C9.12891 19.138 9.13797 19.4062 9.17644 20.2458C9.21469 21.0838 9.34775 21.656 9.54237 22.1568C9.74005 22.682 10.0499 23.1579 10.4504 23.5511C10.8436 23.9516 11.3195 24.2615 11.8448 24.4592C12.3456 24.6538 12.9178 24.7868 13.7558 24.8251C14.5954 24.8634 14.8635 24.8725 17.0016 24.8725C19.1396 24.8725 19.4078 24.8634 20.2474 24.8251C21.0853 24.7868 21.6576 24.6538 22.1583 24.4592C22.6813 24.2569 23.1562 23.9476 23.5527 23.5511C23.9492 23.1547 24.2585 22.6797 24.4607 22.1568C24.6554 21.656 24.7884 21.0837 24.8267 20.2458C24.865 19.4061 24.8741 19.138 24.8741 17C24.8741 14.8619 24.865 14.5937 24.8267 13.7542C24.7884 12.9162 24.6554 12.3439 24.4607 11.8432C24.2631 11.3179 23.9532 10.842 23.5527 10.4488C23.1595 10.0483 22.6836 9.73832 22.1582 9.5406C21.6575 9.34613 21.0852 9.21307 20.2472 9.17497C19.4077 9.1365 19.1395 9.12744 17.0014 9.12744H17.0015Z" fill="#E9E9E9"/>
<path d="M16.9997 12.9573C16.2001 12.9573 15.4185 13.1944 14.7537 13.6386C14.0889 14.0828 13.5707 14.7142 13.2648 15.4529C12.9588 16.1916 12.8787 17.0044 13.0347 17.7886C13.1907 18.5728 13.5757 19.2931 14.1411 19.8585C14.7065 20.4239 15.4268 20.8089 16.211 20.9649C16.9952 21.1209 17.808 21.0408 18.5467 20.7349C19.2854 20.4289 19.9168 19.9107 20.361 19.2459C20.8052 18.5811 21.0423 17.7995 21.0423 16.9999C21.0423 15.9278 20.6164 14.8995 19.8583 14.1413C19.1001 13.3832 18.0719 12.9573 16.9997 12.9573ZM16.9997 19.6241C16.4807 19.6241 15.9733 19.4702 15.5418 19.1818C15.1103 18.8935 14.7739 18.4836 14.5753 18.0041C14.3767 17.5246 14.3247 16.997 14.426 16.488C14.5272 15.9789 14.7772 15.5114 15.1442 15.1444C15.5112 14.7774 15.9787 14.5274 16.4878 14.4262C16.9968 14.3249 17.5244 14.3769 18.0039 14.5755C18.4834 14.7741 18.8933 15.1105 19.1816 15.542C19.47 15.9736 19.6239 16.4809 19.6239 16.9999C19.6239 17.6959 19.3474 18.3634 18.8553 18.8555C18.3631 19.3476 17.6957 19.6241 16.9997 19.6241Z" fill="#E9E9E9"/>
<path d="M21.2025 13.7424C21.7242 13.7424 22.1472 13.3195 22.1472 12.7977C22.1472 12.276 21.7242 11.853 21.2025 11.853C20.6808 11.853 20.2578 12.276 20.2578 12.7977C20.2578 13.3195 20.6808 13.7424 21.2025 13.7424Z" fill="#E9E9E9"/>
</g>
<defs>
<clipPath id="clip0_3119_183107">
<rect width="16" height="16" fill="white" transform="translate(9 9)"/>
</clipPath>
</defs>
</svg>
