<svg width="34" height="34" viewBox="0 0 34 34" fill="none" xmlns="http://www.w3.org/2000/svg">
<path d="M12.7656 25V14.2048H9.20976V25H12.7656ZM10.9882 12.73C12.2282 12.73 13 11.9011 13 10.8652C12.9769 9.80593 12.2282 9 11.0117 9C9.79539 9 9 9.80594 9 10.8652C9 11.9011 9.77164 12.73 10.965 12.73H10.9882Z" fill="#E9E9E9"/>
<path d="M15 25H18.276V18.998C18.276 18.6767 18.2973 18.3559 18.3838 18.1262C18.6206 17.4844 19.1596 16.8197 20.0646 16.8197C21.25 16.8197 21.7243 17.8053 21.7243 19.2502V24.9999H25V18.8373C25 15.536 23.3838 14 21.2284 14C19.4612 14 18.6852 15.0772 18.2542 15.8109H18.276V14.2521H15.0001C15.0431 15.2606 15.0001 24.9998 15.0001 24.9998L15 25Z" fill="#E9E9E9"/>
</svg>
