<svg width="34" height="34" viewBox="0 0 34 34" fill="none" xmlns="http://www.w3.org/2000/svg">
<g clip-path="url(#clip0_6131_50)">
<path fill-rule="evenodd" clip-rule="evenodd" d="M0.000352625 16.867C-0.0607051 26.4189 7.8161 33.9371 16.8751 33.9996C26.2881 34.065 34.0755 26.2814 33.9994 17.0258C34.0814 7.68543 26.3324 0.0614107 17.1474 0.000377925C7.6967 -0.0622848 0.059055 7.67601 0.000352625 16.867ZM2.25812 16.8846C2.20517 25.1678 9.03555 31.6876 16.8917 31.7418C25.0547 31.7986 31.8076 25.0488 31.7416 17.0225C31.8128 8.92268 25.0929 2.31107 17.1279 2.25814C8.93236 2.20359 2.30908 8.91419 2.25812 16.8846Z" fill="white"/>
<path d="M16.8917 31.7418C9.03555 31.6876 2.20517 25.1678 2.25812 16.8846C2.30908 8.91419 8.93236 2.20359 17.1279 2.25814C25.0929 2.31107 31.8128 8.92268 31.7416 17.0225C31.8076 25.0488 25.0547 31.7986 16.8917 31.7418ZM16.8917 31.7418C9.03555 31.6876 2.20517 25.1678 2.25812 16.8846C2.30908 8.91419 8.93236 2.20359 17.1279 2.25814C25.0929 2.31107 31.8128 8.92268 31.7416 17.0225C31.8076 25.0488 25.0547 31.7986 16.8917 31.7418Z" fill="white" fill-opacity="0.1"/>
<path d="M22.4888 16.9942C22.451 17.6968 21.8372 18.2802 21.2322 18.1784C21.2293 18.1784 21.2263 18.1784 21.2232 18.1784C20.5531 18.1793 20.0093 17.6367 20.0086 16.9667C20.0314 16.2948 20.5886 15.7653 21.2606 15.7767C21.9307 15.7799 22.525 16.3462 22.4888 16.9942ZM11.7142 23.8027C11.9669 23.8101 12.2197 23.8047 12.5111 23.8047V25.6356C10.7002 25.9418 9.20853 25.4276 8.84249 23.8969C8.71716 23.3341 8.64011 22.7615 8.6119 22.1855C8.57302 21.5757 8.6403 20.959 8.59382 20.3502C8.46505 18.6752 8.24803 18.1033 6.64062 18.0241V15.9395C6.75583 15.9125 6.87266 15.8926 6.99021 15.8794C7.8715 15.836 8.24297 15.5658 8.44009 14.6977C8.5298 14.21 8.58297 13.7163 8.5987 13.2205C8.66851 12.262 8.64373 11.288 8.80342 10.345C9.03419 8.98139 9.88075 8.31893 11.2791 8.24478C11.677 8.22344 12.0761 8.24153 12.527 8.24153V10.113C12.3414 10.1262 12.1714 10.1531 12.0025 10.1481C10.863 10.1132 10.804 10.5013 10.7208 11.4446C10.6689 12.0361 10.7405 12.6378 10.7002 13.2314C10.6581 13.8221 10.579 14.4096 10.4636 14.9905C10.2992 15.8324 9.78165 16.4585 9.06439 16.9898C10.4568 17.8959 10.6152 19.3038 10.7056 20.7335C10.7543 21.5017 10.732 22.2754 10.81 23.0398C10.8707 23.6332 11.1015 23.7846 11.7142 23.8027ZM12.8878 15.7767H12.9093C13.575 15.7877 14.106 16.3362 14.0949 17.0021C14.0949 17.024 14.0942 17.0457 14.093 17.0674C14.0555 17.7181 13.4978 18.2151 12.8471 18.1777C12.8208 18.1782 12.7948 18.1777 12.7686 18.1764C12.1059 18.1435 11.5954 17.5796 11.6283 16.917C11.6612 16.2543 12.2251 15.7438 12.8878 15.7767ZM17.0363 15.7767C17.7644 15.7711 18.248 16.2429 18.2518 16.9627C18.2558 17.7018 17.7973 18.1748 17.0739 18.1778C16.3382 18.1811 15.8539 17.7158 15.8499 17.0003C15.8478 16.9638 15.8472 16.9273 15.8483 16.8907C15.8687 16.255 16.4006 15.7563 17.0363 15.7767ZM25.7222 14.8648C25.9159 15.5882 26.293 15.8425 27.0546 15.8772C27.1793 15.883 27.3036 15.9042 27.4747 15.9232V18.0073C27.3821 18.0377 27.2871 18.0605 27.1907 18.0753C26.1702 18.1388 25.705 18.5575 25.602 19.5807C25.5361 20.2339 25.5416 20.8944 25.4963 21.55C25.4773 22.2698 25.4119 22.9876 25.3003 23.6989C25.0399 24.9876 24.2353 25.6305 22.9058 25.709C22.4779 25.7343 22.047 25.713 21.5856 25.713V23.8502C21.8339 23.8349 22.0531 23.8137 22.2728 23.8085C23.0671 23.7895 23.348 23.5334 23.3869 22.7445C23.4299 21.8779 23.4487 21.0102 23.4874 20.1433C23.5437 18.8904 23.8868 17.7711 25.054 16.9897C24.3861 16.5135 23.8499 15.9367 23.711 15.1591C23.543 14.2165 23.4887 13.2531 23.3983 12.2973C23.3536 11.8195 23.3558 11.3375 23.3091 10.8601C23.2588 10.3446 22.9047 10.1663 22.4356 10.1548C22.1669 10.1482 21.897 10.1535 21.5534 10.1535V8.33449C23.7461 7.97043 25.2607 8.69999 25.4014 10.7979C25.4604 11.6788 25.4517 12.5639 25.5081 13.4448C25.5329 13.924 25.6045 14.3997 25.7222 14.8648Z" fill="white"/>
</g>
<defs>
<clipPath id="clip0_6131_50">
<rect width="34" height="34" fill="white"/>
</clipPath>
</defs>
</svg>
