<svg width="34" height="34" viewBox="0 0 34 34" fill="none" xmlns="http://www.w3.org/2000/svg">
<path d="M12.9338 18.1604L9.32038 16.9116C9.32038 16.9116 8.88853 16.7257 9.02759 16.3043C9.05621 16.2174 9.11396 16.1434 9.28669 16.0163C10.0873 15.4244 24.1058 10.0797 24.1058 10.0797C24.1058 10.0797 24.5017 9.93819 24.7351 10.0323C24.7928 10.0513 24.8448 10.0862 24.8857 10.1334C24.9265 10.1807 24.9548 10.2386 24.9677 10.3013C24.9929 10.4119 25.0034 10.5258 24.999 10.6396C24.9979 10.738 24.9867 10.8292 24.9782 10.9723C24.8928 12.4335 22.3377 23.3394 22.3377 23.3394C22.3377 23.3394 22.1849 23.9776 21.6372 23.9994C21.5026 24.0041 21.3685 23.9799 21.2429 23.9283C21.1173 23.8768 21.0028 23.799 20.9061 23.6995C19.8313 22.7188 16.1165 20.0706 15.2956 19.4882C15.2771 19.4748 15.2615 19.4574 15.2499 19.437C15.2383 19.4167 15.2309 19.394 15.2282 19.3704C15.2168 19.309 15.2797 19.233 15.2797 19.233C15.2797 19.233 21.7482 13.134 21.9203 12.4937C21.9337 12.4441 21.8833 12.4197 21.8157 12.4414C21.3861 12.609 13.9384 17.598 13.1164 18.1486C13.0572 18.1676 12.9947 18.1716 12.9338 18.1604Z" fill="#E9E9E9"/>
</svg>
