<svg width="34" height="34" viewBox="0 0 34 34" fill="none" xmlns="http://www.w3.org/2000/svg">
<path d="M23.362 13.4853C23.3717 13.6372 23.3717 13.789 23.3717 13.9423C23.3717 18.6131 20.0697 24 14.0317 24V23.9972C12.2481 24 10.5015 23.4498 9 22.4125C9.25935 22.4461 9.52001 22.4629 9.78131 22.4636C11.2594 22.465 12.6953 21.9309 13.8582 20.9475C12.4535 20.9188 11.2217 19.9326 10.7914 18.4927C11.2835 18.5949 11.7905 18.5739 12.2735 18.4319C10.742 18.0987 9.64026 16.6498 9.64026 14.9671V14.9223C10.0966 15.196 10.6075 15.3478 11.1301 15.3646C9.68771 14.3266 9.2431 12.2603 10.1141 10.6448C11.7807 12.8532 14.2397 14.1957 16.8794 14.3378C16.6149 13.1101 16.9763 11.8236 17.8291 10.9605C19.1512 9.62221 21.2306 9.6908 22.4734 11.1138C23.2086 10.9577 23.9132 10.6672 24.558 10.2557C24.3129 11.0739 23.8001 11.769 23.115 12.2106C23.7656 12.128 24.4013 11.9405 25 11.6542C24.5593 12.3653 24.0042 12.9848 23.362 13.4853Z" fill="#E9E9E9"/>
</svg>
