<svg width="34" height="34" viewBox="0 0 34 34" fill="none" xmlns="http://www.w3.org/2000/svg">
<g clip-path="url(#clip0_3119_183109)">
<path d="M16.9999 11C16.9999 11 11.992 11 10.7399 11.353C10.0678 11.5506 9.51403 12.1437 9.32952 12.8778C9.00003 14.219 9 17 9 17C9 17 9.00003 19.7952 9.32952 21.1223C9.51403 21.8564 10.0546 22.4354 10.7399 22.6331C12.0052 23.0001 16.9999 23.0001 16.9999 23.0001C16.9999 23.0001 22.0082 23.0001 23.2602 22.6471C23.9456 22.4495 24.4861 21.8705 24.6706 21.1363C25.0001 19.7951 25.0001 17.0141 25.0001 17.0141C25.0001 17.0141 25.0133 14.219 24.6706 12.8778C24.4861 12.1437 23.9456 11.5647 23.2602 11.367C22.0082 11 16.9999 11 16.9999 11ZM15.4052 14.4308L19.5699 17L15.4052 19.5693V14.4308Z" fill="#E9E9E9"/>
</g>
<defs>
<clipPath id="clip0_3119_183109">
<rect width="16.0002" height="16.0001" fill="white" transform="translate(9 9)"/>
</clipPath>
</defs>
</svg>
